/* XPM */
static char *chest_closed_anim_f0_scaled_4x_pngcrushed1672411194[] = {
/* columns rows colors chars-per-pixel */
"64 64 7 1 ",
"  c None",
". c black",
"X c #4D3533",
"o c #63413D",
"O c #704844",
"+ c #898989",
"@ c #A4A4A4",
/* pixels */
"                ................................                ",
"                ................................                ",
"                ................................                ",
"                ................................                ",
"        ........OOOOOOOOOOOOOOOOOOOOOOOOOOOOOOOO........        ",
"        ........OOOOOOOOOOOOOOOOOOOOOOOOOOOOOOOO........        ",
"        ........OOOOOOOOOOOOOOOOOOOOOOOOOOOOOOOO........        ",
"        ........OOOOOOOOOOOOOOOOOOOOOOOOOOOOOOOO........        ",
"    ....@@@@ooooOOOOOOOOOOOOOOOOOOOOOOOOOOOOOOOOoooo++++....    ",
"    ....@@@@ooooOOOOOOOOOOOOOOOOOOOOOOOOOOOOOOOOoooo++++....    ",
"    ....@@@@ooooOOOOOOOOOOOOOOOOOOOOOOOOOOOOOOOOoooo++++....    ",
"    ....@@@@ooooOOOOOOOOOOOOOOOOOOOOOOOOOOOOOOOOoooo++++....    ",
"....@@@@@@@@ooooOOOOOOOOOOOOOOOOOOOOOOOOOOOOOOOOoooo++++++++....",
"....@@@@@@@@ooooOOOOOOOOOOOOOOOOOOOOOOOOOOOOOOOOoooo++++++++....",
"....@@@@@@@@ooooOOOOOOOOOOOOOOOOOOOOOOOOOOOOOOOOoooo++++++++....",
"....@@@@@@@@ooooOOOOOOOOOOOOOOOOOOOOOOOOOOOOOOOOoooo++++++++....",
"....@@@@@@@@ooooOOOOOOOOOOOOOOOOOOOOOOOOOOOOOOOOoooo++++++++....",
"....@@@@@@@@ooooOOOOOOOOOOOOOOOOOOOOOOOOOOOOOOOOoooo++++++++....",
"....@@@@@@@@ooooOOOOOOOOOOOOOOOOOOOOOOOOOOOOOOOOoooo++++++++....",
"....@@@@@@@@ooooOOOOOOOOOOOOOOOOOOOOOOOOOOOOOOOOoooo++++++++....",
"....++++++++ooooOOOOOOOOOOOOOOOOOOOOOOOOOOOOOOOOoooo@@@@@@@@....",
"....++++++++ooooOOOOOOOOOOOOOOOOOOOOOOOOOOOOOOOOoooo@@@@@@@@....",
"....++++++++ooooOOOOOOOOOOOOOOOOOOOOOOOOOOOOOOOOoooo@@@@@@@@....",
"....++++++++ooooOOOOOOOOOOOOOOOOOOOOOOOOOOOOOOOOoooo@@@@@@@@....",
"....++++++++ooooOOOOOOOOOOOOOOOOOOOOOOOOOOOOOOOOoooo@@@@@@@@....",
"....++++++++ooooOOOOOOOOOOOOOOOOOOOOOOOOOOOOOOOOoooo@@@@@@@@....",
"....++++++++ooooOOOOOOOOOOOOOOOOOOOOOOOOOOOOOOOOoooo@@@@@@@@....",
"....++++++++ooooOOOOOOOOOOOOOOOOOOOOOOOOOOOOOOOOoooo@@@@@@@@....",
"....++++++++ooooooooOOOOOOOOOOOOOOOOOOOOOOOOoooooooo@@@@@@@@....",
"....++++++++ooooooooOOOOOOOOOOOOOOOOOOOOOOOOoooooooo@@@@@@@@....",
"....++++++++ooooooooOOOOOOOOOOOOOOOOOOOOOOOOoooooooo@@@@@@@@....",
"....++++++++ooooooooOOOOOOOOOOOOOOOOOOOOOOOOoooooooo@@@@@@@@....",
"....@@@@@@@@oooooooooooooooo@@@@@@@@oooooooooooooooo@@@@@@@@....",
"....@@@@@@@@oooooooooooooooo@@@@@@@@oooooooooooooooo@@@@@@@@....",
"....@@@@@@@@oooooooooooooooo@@@@@@@@oooooooooooooooo@@@@@@@@....",
"....@@@@@@@@oooooooooooooooo@@@@@@@@oooooooooooooooo@@@@@@@@....",
"....++++++++++++++++++++@@@@@@@@@@@@@@@@++++++++++++++++++++....",
"....++++++++++++++++++++@@@@@@@@@@@@@@@@++++++++++++++++++++....",
"....++++++++++++++++++++@@@@@@@@@@@@@@@@++++++++++++++++++++....",
"....++++++++++++++++++++@@@@@@@@@@@@@@@@++++++++++++++++++++....",
"....++++++++XXXXXXXXOOOO@@@@........@@@@OOOOXXXXXXXX++++++++....",
"....++++++++XXXXXXXXOOOO@@@@........@@@@OOOOXXXXXXXX++++++++....",
"....++++++++XXXXXXXXOOOO@@@@........@@@@OOOOXXXXXXXX++++++++....",
"....++++++++XXXXXXXXOOOO@@@@........@@@@OOOOXXXXXXXX++++++++....",
"....++++++++XXXXOOOOOOOOOOOO@@@@@@@@OOOOOOOOOOOOXXXX++++++++....",
"....++++++++XXXXOOOOOOOOOOOO@@@@@@@@OOOOOOOOOOOOXXXX++++++++....",
"....++++++++XXXXOOOOOOOOOOOO@@@@@@@@OOOOOOOOOOOOXXXX++++++++....",
"....++++++++XXXXOOOOOOOOOOOO@@@@@@@@OOOOOOOOOOOOXXXX++++++++....",
"....++++++++XXXXOOOOOOOOOOOOOOOOOOOOOOOOOOOOOOOOXXXX++++++++....",
"....++++++++XXXXOOOOOOOOOOOOOOOOOOOOOOOOOOOOOOOOXXXX++++++++....",
"....++++++++XXXXOOOOOOOOOOOOOOOOOOOOOOOOOOOOOOOOXXXX++++++++....",
"....++++++++XXXXOOOOOOOOOOOOOOOOOOOOOOOOOOOOOOOOXXXX++++++++....",
"....++++++++XXXXOOOOOOOOOOOOOOOOOOOOOOOOOOOOOOOOXXXX++++++++....",
"....++++++++XXXXOOOOOOOOOOOOOOOOOOOOOOOOOOOOOOOOXXXX++++++++....",
"....++++++++XXXXOOOOOOOOOOOOOOOOOOOOOOOOOOOOOOOOXXXX++++++++....",
"....++++++++XXXXOOOOOOOOOOOOOOOOOOOOOOOOOOOOOOOOXXXX++++++++....",
"....++++++++XXXXXXXXOOOOOOOOOOOOOOOOOOOOOOOOXXXXXXXX++++++++....",
"....++++++++XXXXXXXXOOOOOOOOOOOOOOOOOOOOOOOOXXXXXXXX++++++++....",
"....++++++++XXXXXXXXOOOOOOOOOOOOOOOOOOOOOOOOXXXXXXXX++++++++....",
"....++++++++XXXXXXXXOOOOOOOOOOOOOOOOOOOOOOOOXXXXXXXX++++++++....",
"    ........................................................    ",
"    ........................................................    ",
"    ........................................................    ",
"    ........................................................    "
};
