/* XPM */
static char *pngegg_resized[] = {
/* columns rows colors chars-per-pixel */
"64 80 141 2 ",
"   c None",
".  c #0B0F09",
"X  c #0E120C",
"o  c #10140F",
"O  c #141613",
"+  c #161915",
"@  c #181B17",
"#  c #171C1D",
"$  c #1B1D1B",
"%  c #221E1C",
"&  c #1E221D",
"*  c #22221F",
"=  c #28221F",
"-  c #1B1E20",
";  c #1C2125",
":  c #1E252B",
">  c #1F2931",
",  c #222521",
"<  c #2B2622",
"1  c #252A24",
"2  c #2C2A26",
"3  c #20262A",
"4  c #2A2E29",
"5  c #312A27",
"6  c #342D2A",
"7  c #293027",
"8  c #2D332B",
"9  c #33342E",
"0  c #39312E",
"q  c #31382F",
"w  c #202C35",
"e  c #24323C",
"r  c #343533",
"t  c #3D3532",
"y  c #343B32",
"u  c #383E37",
"i  c #3B3C3B",
"p  c #403734",
"a  c #403835",
"s  c #374035",
"d  c #384236",
"f  c #3C443A",
"g  c #3E4A3C",
"h  c #40453E",
"j  c #414F3E",
"k  c #42503F",
"l  c #213242",
"z  c #273B4E",
"x  c #283E52",
"c  c #294156",
"v  c #2B445B",
"b  c #2C4760",
"n  c #2E4A64",
"m  c #2F4E69",
"M  c #304F6A",
"N  c #2F506C",
"B  c #31526E",
"V  c #325573",
"C  c #345877",
"Z  c #345B7B",
"A  c #385F7E",
"S  c #434443",
"D  c #444A42",
"F  c #484D47",
"G  c #4B4B4A",
"H  c #455443",
"J  c #475845",
"K  c #495A47",
"L  c #4E514E",
"P  c #4C5D49",
"I  c #50504F",
"U  c #535353",
"Y  c #575857",
"T  c #585957",
"R  c #5B5C5B",
"E  c #546552",
"W  c #5F605E",
"Q  c #5B6C59",
"!  c #636363",
"~  c #686867",
"^  c #6C6C6C",
"/  c #6F716F",
"(  c #706F70",
")  c #747474",
"_  c #777977",
"`  c #787977",
"'  c #787778",
"]  c #7C7C7B",
"[  c #7F807F",
"{  c #80807F",
"}  c #365F81",
"|  c #376285",
" . c #396384",
".. c #376488",
"X. c #38668B",
"o. c #39698E",
"O. c #3B6D94",
"+. c #3A6F98",
"@. c #3E7097",
"#. c #3C729B",
"$. c #3D76A2",
"%. c #3E78A5",
"&. c #3E7AA9",
"*. c #407197",
"=. c #41759D",
"-. c #46789D",
";. c #417AA5",
":. c #497FA6",
">. c #417DAB",
",. c #4480AE",
"<. c #4B83AB",
"1. c #4582B0",
"2. c #4C86B0",
"3. c #4E8AB5",
"4. c #4E8CB9",
"5. c #508CB6",
"6. c #508EBA",
"7. c #5291BE",
"8. c #5495C2",
"9. c #5799C7",
"0. c #5899C5",
"q. c #579AC8",
"w. c #5A9DCB",
"e. c #5DA0CD",
"r. c #64A4CD",
"t. c #66A8D2",
"y. c #69AAD3",
"u. c #848484",
"i. c #8B8B8B",
"p. c #949494",
"a. c #9B9B9B",
"s. c #9FA09F",
"d. c #A3A3A3",
"f. c #AAABAA",
"g. c #B4B4B4",
"h. c #BCBCBC",
"j. c #C4C4C4",
"k. c #CCCCCC",
"l. c #D3D3D3",
"z. c #D8D8D8",
"x. c #E6E6E6",
/* pixels */
"                                                          m n b m m m                                                           ",
"                                                  v b m V #.O.N +.$.+.B n b v                                                   ",
"                                              m m m V +.$.&.#.V %.&.%.$.O.m m m m                                               ",
"                                          b V +.#.#.$.&.>.>.=.C 4.1.&.>.$.$.$.#.+.m v                                           ",
"                                        b B +.>.&.>.>.1.7.8.5.C 6.7.8.6.1.&.1.&.&.O.m v                                         ",
"                                    b n m #.>.>.8.8.8.5.*.=.<.V o.*.+.=.4.8.8.8.1.>.O.n M b                                     ",
"                                b m B o.V >.8.3.+.+.+.+.X.X.X.n M | X.o.+.+.+.#.6.6.=.Z :.B n b                                 ",
"                              m B +.$.;.} :.=.O.o.X.X.| Z Z Z Z n C C Z ..X.X.o.+.=.:. .7.$.O.M m                               ",
"                          v V +.%.>.>.6.2.Z ..X.X...C C V C C V n V C V C Z X.X.X.} } 6.6.>.;.$.O.m v                           ",
"                        v V #.&.>.>.4.=.O.} M V C C C C C V V V n V V C V C C Z V M } *.;.5.>.>.%.+.m v                         ",
"                      b N +.&.,.6.6.*.X...C V M V V V V M b v c x v n V V C V B M V Z X.X.;.6.4.&.&.O.n v                       ",
"                    v B #.&.1.4.=.O.X.C C V V M m B v v c z - # $ 3 x c x b B M B V C C Z X.+.;.4.>.&.+.m v                     ",
"                    V #.&.>.4.#.X...Z V M v v x x x - # $ $ % % % % $ - $ : x x x v b V C Z ..o.;.3.>.&.o.m                     ",
"                  m +.;.1.4.#.X.Z C C V x ; - - - - % % % * < 5 5 % % % % % # - - - 3 x V C C Z X.;.4.>.&.O.n                   ",
"                b V $.1.5.+.X...C V M x ; % 5 % 5 % 5 6 0 6 6 6 0 6 6 6 6 < = 5 = < % 3 x B V Z X.X.;.6.>.#.B v                 ",
"              v m <.1.5.+.X.Z C V x - % % 6 6 6 p 6 = 0 t t t t t t p t 6 < 0 t 6 6 5 % - 3 b V C A o.*.4.,.-.n v               ",
"              m M V 2.*.} } C B x = = < 6 6 6 0 t 0 < 6 * $ & & @ & & , 6 < t p 6 6 6 5 < % w x V Z ..} +.O.M n M               ",
"            V +.+.V B X...Z V x ; 5 t < 6 t t t * & $ * 8 8 y H & q r q * $ $ , p p t 5 5 t < 3 c V Z X.} M C $.O.M             ",
"          m +.&.>.:.V } ..C x ; = 6 6 < % $ $ * r q 4 8 r y P H & 8 r q y y r q - % % % 5 6 5 * : v Z X.} Z 2.>.&.o.b           ",
"          B #.>.8.=.} M V b ; % 5 0 0 $ + # 2 i L f q 8 @ + & & O + + * H y h L i 6 $ + - t 6 5 % : M V M | ;.8.&.+.m           ",
"        m +.+.>.6.o.Z V v - % 6 0 0 $ + % r F ) E H $ + O o o & O O O O + , K ! ) g 1 # + * t 6 5 % > b C Z *.6.>.&.O.b         ",
"        m +.#.6.=.o.C B x - 5 6 0 $ $ 4 i F _ ] L & O $ & & & & + $ & $ O O 3 T ] / D i 1 $ % t 6 < - x V Z X.=.4.&.O.n         ",
"        n X.+.6.O.} C v - $ 6 0 $ $ 7 g _ ] ) U & O & & & & & 1 + & * & $ O O 2 W ) ] / y 1 $ * t 2 $ : b Z } O.8.&.O.b         ",
"  7.Z n n  . .6.O.Z V x # % 6 6 $ 2 r F ] ) ! F & & & & & & & 1 + & 1 7 1 $ O $ U ~ ` ) g r , $ 6 5 % - b C Z =.8.&.O.n M ..q.  ",
"  7.5.=.V V A 6.O.Z V x # % < < $ r f T ( R , $ $ , 2 1 7 & & 1 + & * & & & & + # 4 ! ^ I i 1 $ < < % ; b V A *.8.$.V V ;.6.7.  ",
"  V *.6.#.M A 6.+. .C x - t t % 4 y f L G - O O O $ ; , & & 1 1 + & & * & & & + + O 2 I L r 4 $ , t 0 ; b C ..=.8.O.V >.4.o.B   ",
"  n X.*.2.V A 6.O.Z V x - 6 t $ 8 y 8 & $ O , r + & * 1 7 7 7 1 $ 1 1 1 & & & @ r - O $ 4 y y 1 % t 6 ; b V Z =.3.V A 3.*.| v   ",
"  n O.X.X.A V <...C B v - 6 6 % q q & $ $ , ~ F $ @ & * , & * 1 + & , ; & & O & U ! + O , y y 8 - 6 < ; b V C +.:.m } X.X.X.n   ",
"  b n M M M m V M M n x - 6 t $ r q & & O 4 ] ) r + < < < = * 1 + & * 7 1 & & g ] ( % O 1 r f 8 * a 5 - v n n m V m B N B m b   ",
"    n } X.+.+.+.+.+.O.v - 6 t - y s & & & L ) ~ & & o o 1 2 7 7 @ 7 1 * O O @ 1 ) ( G + & 8 K q % t 5 : v V C ....+.#.#.#.O.    ",
"    n | X...Z C Z Z C c - 5 5 % s K 1 & $ U R * 8 _ = X X o 7 = @ ; o X . 4 ^ , 4 ! D @ & 7 K q % 6 < - b V V V V } X.X.} m     ",
"    b n n m n n n b n x $ = < $ d P * & O , S 1 <.{ h % X X X X O X X o $ U p.) , S $ O @ 1 f r $ 5 ; - v n b n n n n n n b     ",
"        b B B V B n V x - % 5 $ d K 3 + , + O , ' a.i.I h & + , O O 1 S T p.p.! $ + O * O 7 P q & 5 % ; b B b V V V B b         ",
"        b C Z C V n V x # < < $ y y & 1 ) r + G ( s.h.h.a.u.^ d.1 L i.s.g.d.i.R i o i / $ 7 P q $ 5 % ; b B m V C Z } b         ",
"        n } } } V n V x - < < % y q & 1 i.] 1 , ~ { d.k.j.k.z.j.i a.j.k.j.p.) U & h f.] $ 7 P q % 5 = ; b V b } X.X...b         ",
"        M o.o.o.X.M V x - = = $ y u * $ ! p.' r ! u.a.d.k.l.x.h.h g.l.j.a.u.( ] S f.g.U @ 7 P r $ = * ; b V m ..o.;.:.n         ",
"        m #.O.+.2.B } x - t 0 % s K * & 4 ' p.p.p.i.i.p.j.k.z.h.i a.j.h.i.u.i.p.p.a./ $ + 7 P r % t 6 ; M } B ..O.<.2.n         ",
"        m #.$.+.5.V } v - 6 t - d P * & + 4 u.p.i.u.u.u.a.h.k.h.i p.s.i.i.u.i.i.p.) , + & 1 s 8 * p 5 ; b } m o.O.1.2.n         ",
"        M #.;.=.5.V V x # < t % d P 8 & $ $ Y { u.i.i.u.i.i.s.f.r u.i.i.u.i.i.u.{ G + @ ; q y 1 , t % ; b B B #.+.1.<.n         ",
"        M +.;.>.5.B V x - 6 t % s Q ^ 1 $ O % ! i.a.p.i.u.i.p.d.r ] u.i.i.a.p.i./ @ + & q ^ s 7 4 p 5 - b V V $.%.&.+.n         ",
"        m o.&.&.;.m B x - 6 0 - s Q / 1 @ X & ^ p.a.s.a.p.i.p.f.r { i.p.s.d.s.p.! + O $ r / s 1 = t 2 : b B N $.%.&.+.b         ",
"        n X.$.+.+.M V x # < 5 % d E ! ! @ @ L ! p.a.d.j.j.h.d.d.r u.d.j.j.h.s.i.R S O 4 ^ T y 1 - 4 % - b B B $.+.&.+.b         ",
"        n X.$.O.+.M V v - 5 5 $ d E U L O @ U R ^ i.p.p.a.j.j.f.i p.j.h.g.a.i.! R G o & T L y 1 $ 6 < - b B B $.O.&.O.b         ",
"        m ..$.+.+.M B x - 6 t $ d P 8 F O , ! ! I i t r F i.d.d.i p.s.G i i a U ~ R + $ L r y 7 - t 2 : b B N $.+.&.+.b         ",
"        b X.&.&.X.n V x $ 5 t $ s J 1 D & L ) u.h 5 o o o < ( { 9 R , o X O 4 I i.^ F $ S & s 8 % t < - b B m O.$.&.+.b         ",
"        m ..>.6.o.M } v - * < $ s H & 1 & U ) a.{ p o . X < ~ -.4 G $ . . O F p.p.( G @ 1 , K q % < = - m Z m O.&.&.O.n         ",
"        m X.>.8.o.M } v - t t & y y @ * $ T ) p.s.{ < = 6 ~ ' u.4 W ! 3 % i a.h.p.( G + , , P q - p 0 - m } m o.&.&.O.b         ",
"        b ..;.8.o.M } v - 6 t & y y & * & I ^ ] p.a.{ { [ / s.d.r u.^ u.i.f.h.g.] ~ F + 1 1 P r % i 5 : m } m O.&.&.+.n         ",
"        n X.&.6.o.m } c - 6 t $ d J & 1 : * R ^ ) _ ) ) ' u.j.s.i i.' ) ) ] ] ] ^ L & 1 1 1 P q % p 5 - n } M O.%.&.+.b         ",
"        n X.&.&.X.n V c - 6 6 $ d K & 1 1 & H T ^ ^ ^ ! ' a.d.R 4 u.p.( ! ^ ^ ~ U g + 7 1 & P q - 6 5 - n B m o.$.&.O.n         ",
"        n o.$.} V n B c - 6 t $ s K & 7 1 O & & U T T ^ ' u.i G # i i.' ~ Y T G $ @ + 7 1 & s 8 ; t 5 - b B n Z } &.+.b         ",
"        m #.#.Z } m V c $ 6 t % s H & 1 7 1 & X & S 2 ^ ' u.9 G + r i.) R 2 g @ O 1 1 7 & & s 8 % t 5 : n B M } } &.O.b         ",
"        n X.X.Z V M Z v - 6 t $ 8 y @ 1 1 * 7 * X O $ ^ ) i.R U , R i.' W O o o 1 1 1 & & & s q % p < ; n Z n C Z o.} b         ",
"      b n } V V M b m x - 6 5 $ 7 q @ 4 7 * 7 7 X X 1 ^ ) ) ) ] 6 ~ ' ( W & X O 7 7 1 8 * & q 8 - 6 5 : b n n B V Z } b b       ",
"      b m M m m m b C M - 5 5 + 7 q @ 7 7 7 7 7 , & ^ ^ ) ^ ] { 6 ~ ( ( ~ ! @ 1 8 7 8 8 * & s 8 - 5 < 3 V V m m m m m m n b     ",
"      m #.%.%.;.;...;.O.; 5 5 $ 7 y + & 7 7 7 7 1 , W y u.! ) [ 6 ~ ( -.r W & 1 1 8 1 1 & ; P q % 5 < w =.;.;.%.%.%.%.%.O.n     ",
"      B 3.8.8.8.8.6.8.:.; = 5 $ 8 k & & & & & 1 7 o o 1 ] ~ ~ [ 6 ! ^ ( + + + 2 & 1 & 1 & & P q $ 6 % e 5.7.8.8.8.7.7.8.:.n     ",
"      n ..O.;.$.o.o.O.} - * < $ q k & & 7 7 7 7 7 1 o o a { / [ 5 ! [ 9 o o 1 7 7 7 7 1 & & s q $ < % 3 C } X.O.o.O.O.X.C v     ",
"  V 2.V M M M B M M M b - % % $ 7 q o & & & 7 7 7 7 = < { { ] <.5 / i.) @ 1 7 7 8 7 & & & @ y 8 $ = % ; n M M M M m m M m B     ",
"    9.;.;.$.O.$.;.;.;.o.3 5 0 % s s @ & & & & 1 7 = < 6 { a ~ ] 5 I h ] & 1 * 4 & & & & & @ y q % t < w #.;.$.%.;.;.;.$.:.7.    ",
";.>.7.8.8.8.8.8.8.8.9.<.3 6 t % d J & & & & & & * & & q / & 8 P $ $ 4 / 1 & & * & & & & $ $ d 8 % t 2 l 4.8.8.8.8.8.8.8.8.6.;.&.",
">.$.C O.+.+.&.>.&.;.>.O.; 6 t % d K @ & & @ & & & * & & & @ y J & 4 + , & & & & & & & & @ 1 K q % a 5 w O.#.&.>.>.;.%.#.#.Z &.>.",
"8.;.M | o.$.%.$.+.O.o.} - 6 t - s K & @ , J k 1 1 7 7 & @ + f J & 8 @ & 1 7 7 7 J g & O @ 1 P q % p < w ..X.+.$.O.o.O.o.} V >.9.",
"9.;.M ..o.O.o.O.....Z M - 6 t $ s J @ 1 k d 7 & & * & & & & d K & 8 @ & & & & & 7 g g & & & P r % p < 3 V Z ..o.o.o.X.o.} V ,.w.",
"9.$.m } ........V V V m - % 5 $ 4 y 1 H f q & & & & & 1 & & s k & 8 & & 1 & & & & s g J g 7 K 8 & 2 % ; B V C C } X.} X.} N >.e.",
"q.;.V m m m M m m m m b - % < $ 2 f H f y & & & & & 7 g & & g P & 8 & & g & & & & 7 s d d q d 7 $ 5 % ; n M m M N N B B N C >.q.",
"w.9.;.%.%.%.&.;.%.;.;.O.- * 5 $ 8 y d y 8 @ + 1 7 7 1 ; J J g k & s P g & o 1 1 & & q s s s s 1 $ 5 % w #.%.$.;.&.;.$.$.$.>.9.q.",
"8.0.8.8.8.8.8.8.8.8.8.:.3 % < $ 4 8 y y ; @ @ & & & & & s s g K & s d s & & & & & & & q 8 y q 1 @ < % e 6.8.8.8.8.8.8.8.8.8.9.8.",
"V %.>.&.>.>.>.>.;.&.+.} - % % # 1 8 8 s H s J K K K P v q 8 s J & 7 7 d K P k s J P c d s 7 8 1 @ % % w o.#.>.>.>.>.>.#.+.#.*.B ",
"b o.&.&.&.&.&.%.+.O.o.} - % % # 1 1 1 7 8 8 8 8 8 8 q 7 7 * q g & ; 1 7 8 8 q 8 8 8 8 1 7 7 7 * + % @ > ..X.o.+.$.%.%.%.=.O.} b ",
"m ..O.$.$.&.%.O.O.} } C - - - - $ - # # $ - - ; * & & & & ; & ; # ; ; & & & : ; & & ; ; & & & & % $ # > } A X.X.+.$.+.$.$.o.} n ",
"n ..o.o.o.o.X...} Z V B l x x v v c c v c c c c c c v v c c c c c c c v c c c v v c x c c c c c x x x l V C Z X.X.o.X.o.o.o.} b ",
"b } ..C V C V C V V V B b B C ....C C V V n V V V Z X.C C C C C C V C V C C C C C N n V V C C C Z C N b B V V C C C C C C } } b ",
"b m m b n m m n m b n m m Z o.%.$.o.o.o.| m V Z X.O.#.o.o.o.X.X.o.o.o.o.o.X.o.o...V n Z X.o.o.o.} } V n n n n n n n n n m N m b ",
"b V V C ..X.X.X.X.X.X.X.X.o.%.;.&.&.&.&.#.C Z o.;.>.>.>.&.&.&.&.&.&.>.&.&.>.&.#.O.| Z X.O.$.&.#.O.o.o.} V C X.} } } } o.} X.} b ",
"b C ..+.;.>.>.;.;.&.&.;.>.>.>.>.>.&.>.&.$.Z O.$.,.7.e.7.e.e.7.,.,.9.9.8.9.9.8.,.&.X.Z o.+.&.,.&.;.>.;.+.*.o.O.O.+.O.o.O.o.o.} b ",
"n ..+.8.0.9.0.9.9.>.>.0.q.9.9.9.9.q.8.,.#.} $.&.,.e.9.e.e.9.e.8.9.e.e.e.e.e.e.e.7.%.A O.1.9.9.8.9.q.0.0.8.>.;.>.>.>.;.;.$.O.} b ",
"n X.;.0.w.w.w.e.t.t.w.w.t.e.w.w.w.w.w.8.$.} &.>.7.9.8.e.8.e.q.e.e.e.9.e.t.t.t.y.e.4.O.&.7.9.9.e.e.t.e.e.y.r.r.r.q.q.9.8.>.;.*.n ",
"m +.&.8.8.8.0.8.9.0.8.8.0.0.8.8.8.8.9.8.$.O.#.&.&.&.,.&.1.7.8.8.9.7.0.7.0.0.0.7.9.4.+.%.&.,.&.,.8.0.e.8.0.0.0.8.9.8.8.8.8.8.>.M ",
"X.O.O.+.+.*.+.*.+.*.*.*.*.O.+.*.+.O.+.+.O.o.O.o.O.O.o.O.o.@.+.+.@.@.@.@.@.@.@.@.@.+.o.o.o.O.o.O.*.*.*.*.*.*.*.*.+.*.*.*.+.*.*.} "
};
