/* XPM */
static char *pngegg__1__resized[] = {
/* columns rows colors chars-per-pixel */
"64 80 80 1 ",
"  c None",
". c #15110F",
"X c #151210",
"o c #191613",
"O c #1C1816",
"+ c #1C1C1C",
"@ c #221D1B",
"# c #25201D",
"$ c #28221F",
"% c #1B1E21",
"& c #1C2126",
"* c #1D242A",
"= c #1F2932",
"- c #272220",
"; c #2B2522",
": c #2E2825",
"> c #20262A",
", c #312A26",
"< c #342D2A",
"1 c #37302C",
"2 c #39322E",
"3 c #212E38",
"4 c #24313B",
"5 c #3D3532",
"6 c #403734",
"7 c #403835",
"8 c #233546",
"9 c #263A4C",
"0 c #283D4F",
"q c #283D50",
"w c #294156",
"e c #2C465D",
"r c #2D4760",
"t c #2D4A63",
"y c #2F4E69",
"u c #304F6A",
"i c #2F506C",
"p c #31526E",
"a c #325572",
"s c #345877",
"d c #345B7B",
"f c #385F7E",
"g c #365F81",
"h c #376185",
"j c #396385",
"k c #376488",
"l c #38668B",
"z c #3A698F",
"x c #3A6C93",
"c c #3B6F98",
"v c #3E7097",
"b c #3C729C",
"n c #3D76A2",
"m c #3E79A6",
"M c #3F7BA9",
"N c #41759D",
"B c #46789D",
"V c #4177A1",
"C c #427AA5",
"Z c #487DA4",
"A c #427EAC",
"S c #4A80A7",
"D c #4481AE",
"F c #4C84AC",
"G c #4583B0",
"H c #4A87B3",
"J c #4E8AB5",
"K c #4E8DB9",
"L c #508BB5",
"P c #518FBB",
"I c #5291BD",
"U c #5394C2",
"Y c #5698C7",
"T c #5B99C3",
"R c #579AC8",
"E c #5A9DCB",
"W c #5EA1CD",
"Q c #65A7D1",
"! c #67A8D2",
"~ c #68A9D3",
/* pixels */
"                             ytryyy                             ",
"                         ertabxicncitre                         ",
"                       yyyabnMcamMMnxyyyy                       ",
"                     rabbbnMADbsKGAMmnnbcye                     ",
"                    eibMMGDGIULdPIIPAMGMMctr                    ",
"                  rtibDDKUIPNNFalNcNIUUIAAxtpe                  ",
"                ryaziDIKbccxklktuhlzcccbIINdZpye                ",
"               yibnnfFvvxlkhdsdftssdkklxcNZjIVxyy               ",
"             eabnmDIFdhklkdssssstasssdlllhfKIDMncye             ",
"            rpbMDGKvxhissssaaaaitaasssssayhxNKDAMxyr            ",
"           epbMDIPvlksptpsaaprwwqwtaaasayadklNIIMMxyr           ",
"          eabMGJvxlssssirpeww9%++>0wweitpaaddkcbKAMxyr          ",
"          abMGJclkdsiwwww0&++++$@@+++&0wwweasdllNJAMxy          ",
"         ycMGJbldssi0&++++@##$-,,-@$$@+%++*wpssfxNKAMxr         ",
"        rsmGJclksat0&#:$:$:<<<<11<<<,:;,;:#*wiadklnKGbpr        ",
"       euZGJcldsi0&+#<<17<$<55555555,;15,<:#+*wadflNJDBre       ",
"       uyaFNdhdi0&;:<<1251-,Ooooooo@<-552<<,:@*eadkfclpyy       ",
"      abbapkksi0&,2;<251OoooXXXXXXXXoooO555,:5:>eidlktsbcp      ",
"     ybMDSahkaq-$<<;@oooXXXXXXXXXXXXXX.XooO$,<,@&edkfdHAmxr     ",
"     pbAPNguae>@,21Oo...XXXXXXXXXXXXXXXXX.XXO5<:@*yppkBIMci     ",
"    yccAPzdae%$,11OX.XXXXXXXXXXXXXXXXXXXXXXXX@5<:#*tsdNPAMct    ",
"    ycbPbksp9+,21OXX..XXXXXXXXXXXXXXXXXXXXXXXXO51;%wadlNICcr    ",
"    tkcPxkae%+<2OXXXXXXXXXXXXXXXXXXXXXXXXXXXXXX@5,+*rdhzUMcr    ",
" TfuthjPxdaw+@,,o.XXXXXXXXXXXXXXXXXXXXXXXXXXXXXO,:+&esdbUMltpzE ",
" PLVaagPxdaw+$;;o.XXXXXXXXXXXXXXXXXXXXXXXXXXXXXo:;$&eadNUbssZPP ",
" pcJVyfPxhsw&55O..XXXXXXXXXXXXXXXXXXXXXXXXXXXXXXO7<&rdkNUxaAJku ",
" tkNFafIxdaw%<5oXXXXXXXXXXXXXXXXXXXXXXXXXXXXXXXX@5:&rsdbJsdHbhe ",
" txklfpSlapw%,,XXXXXXXXXXXXXXXXXXXXXXXXXXXXXXXXXO<:&eascZygkkkr ",
" rtuupyappuq%<5o.XXXXXXXXXXXXXXXXXXXXXXXXXXXXXXX@7:*ettypyppaur ",
"  thlbbccbxe+<5oXXXXXXXXXXXXXXXXXXXXXXXXXXXXXXXXO5:&rashlcnbbx  ",
"  thkkdsssaw%:,oXXXXXXXXXXXXXXXXXXXXXXXXXXXXXXXXO,;*rpaaadklfy  ",
"  rtrtrtretw+$:oXXXXXXXXXXXXXXXXXXXXXXXXXXXXXXXXO,@%etttttttrr  ",
"    eaaaatpw+@;oXXXXXXXXXXXXXXXXXXXXXXXXXXXXXXXXo:@%rytasaae    ",
"    rsdsaraw+$:oXXXXXXXXXXXXXXXXXXXXXXXXXXXXXXX.O,#&ratsddgr    ",
"    tkkdsrpw%:;oXXXXXXXXXXXXXXXXXXXXXXXXXXXXXXXXO,;&rpydlzlr    ",
"    ulxlzusw%-$oXXXXXXXXXXXXXXXXXXXXXXXXXXXXXXXXo--&raylzVFt    ",
"    ybxcLphw&55oXXXXXXXXXXXXXXXXXXXXXXXXXXXXXXX.+5<*tgyzxGFy    ",
"    ybmcLpgw%,5oXXXXXXXXXXXXXXXXXXXXXXXXXXXXXXX.@5:*tdyzxFJt    ",
"    unmNLpaw+;5o.XXXXXXXXXXXXXXXXXXXXXXXXXXXXXX.+5@%raabcASt    ",
"    tbmALppw%,5oXXXXXXXXXXXXXXXXXXXXXXXXXXXXXXX.@5,*raumMMbr    ",
"    tlMmnypw+,5oXXXXXXXXXXXXXXXXXXXXXXXXXXXXXXX.O5:&rpinmMcr    ",
"    tlnccyaw%-:oXXXXXXXXXXXXXXXXXXXXXXXXXXXXXXXXO,%&riancMxt    ",
"    tlncbypw%,,oXXXXXXXXXXXXXXXXXXXXXXXXXXXXXXX.O<;&rppnxMxt    ",
"    ykncbtaw+<5o.XXXXXXXXXXXXXXXXXXXXXXXXXXXXXX.@7:&rpincMcr    ",
"    tlMAluaw%,<oXXXXXXXXXXXXXXXXXXXXXXXXXXXXXXX.O5-*tpyxmMcr    ",
"    tlAIlyge%-;XXXXXXXXXXXXXXXXXXXXXXXXXXXXXXXXXo:-%tgyxmMcr    ",
"    tlCUxyfe%55oXXXXXXXXXXXXXXXXXXXXXXXXXXXXXXXXO7<*tgyxmMcr    ",
"    tlAUlyge%<5o.XXXXXXXXXXXXXXXXXXXXXXXXXXXXXXX@7:*ygyxmMct    ",
"    tlMKlyge+,5oXXXXXXXXXXXXXXXXXXXXXXXXXXXXXXX.O5:*tdyxMMxt    ",
"    tlMnkype%,,oXXXXXXXXXXXXXXXXXXXXXXXXXXXXXXXXO1:%eaylnMcr    ",
"    txnfstpq%<5o.XXXXXXXXXXXXXXXXXXXXXXXXXXXXXX.@5:*ratdgmxt    ",
"    yccdftsw%<5oXXXXXXXXXXXXXXXXXXXXXXXXXXXXXXX.@5,%rayggmxt    ",
"    tlkdstdw%<5oXXXXXXXXXXXXXXXXXXXXXXXXXXXXXXXXO5:%tstsdkkr    ",
"   rtfaaprtw%,:oXXXXXXXXXXXXXXXXXXXXXXXXXXXXXXX.O<:*rtrapsser   ",
"   ryayputdp%,,o.XXXXXXXXXXXXXXXXXXXXXXXXXXXXXXXO<:=ddppppppyr  ",
"   ymAAAZxAb>:,XXXXXXXXXXXXXXXXXXXXXXXXXXXXXXXXXO,-3CAAAAAADbr  ",
"   pHIUUIIIS&#,oXXXXXXXXXXXXXXXXXXXXXXXXXXXXXXX.O,@4FPIIIIIIZt  ",
"   thlcvlkkd&@;XXXXXXXXXXXXXXXXXXXXXXXXXXXXXXXXXo;@>adkhhkhhpe  ",
" sKsiiiaiapr+#$oXXXXXXXXXXXXXXXXXXXXXXXXXXXXXXXXo;@*upppapppps  ",
"  YDDDvDAADc&<2oXXXXXXXXXXXXXXXXXXXXXXXXXXXXXXX.@5;3CDAAAADAHT  ",
"ADJIPIUUUUUF><5oXXXXXXXXXXXXXXXXXXXXXXXXXXXXXXXX@6;4JIUUUUUUIHCM",
"DbakxbmMmnmz><5oXXXXXXXXXXXXXXXXXXXXXXXXXXXXXXXXO6;3lcmMmmbcxsMG",
"YCikxbnbxzld&<5oXXXXXXXXXXXXXXXXXXXXXXXXXXXXXXXX@7,>glxbxlxlgpDR",
"Ynikzzxzlksi+<2oXXXXXXXXXXXXXXXXXXXXXXXXXXXXXXXXO5;*sdklxllxgaDE",
"Ynidhhhfspat&$:o.XXXXXXXXXXXXXXXXXXXXXXXXXXXXXX.O:@*upaaggggdiAE",
"YDsppppiiiir+#;o..XXXXXXXXXXXXXXXXXXXXXXXXXXXXXXO:@*uappppaaigHE",
"WRDDDADDDDDb&#;oXXXXXXXXXXXXXXXXXXXXXXXXXXXXXXX.O:@3CAAAAAAAAAEE",
"JIUUUUUUUUIZ&#;oXXXXXXXXXXXXXXXXXXXXXXXXXXXXXXX.O;+3JUUUUUUUUUUJ",
"ibMMMMMMnncd&@+oXXXXXXXXXXX.XXXX....X...XX......o@#=lcmVMMmcxcxt",
"tlnmMMMnxlkf%@OX...X..XXX.......................o++=klzxmmnMnxgr",
"tlxnnnbxlkds&&%%%%%%%%%%%%%%%%%%%%%%%%%%%%%%%%%%%%%=gdkzcccnbzgt",
"tlllllllkdsi8erttrereeerrrtrrrrerrrrrrrrrrerrrrrrtq8asdkllgllzgr",
"rggappapppaprafxzdddstassdldddsddddsdddddprsddsdssutpapappapagdr",
"rtttupuuuyyyydxmmxxxlyadxcnxxxxxxxxxxxxxksyglxxxldsyttuuuuyuyuyr",
"raddlxxxxxxxxcmCmmMMbddcMGGGGAAMmAFGAAAmxkdlxmMncxzksglllllllzgr",
"rflbDGDDAmmDDGDDGAAMnfcmMRREERRGHEEERERGAzdzcAGGAAAVNxxxxcxxxzgr",
"tlbUEEEEEHHRWEEEEERGngnMHEEEEEEREEEEWQWEUCgcHRREEETTTJHGAGAAmckt",
"txMREEEE~QEE~EEEEEEYnkmMUUUUREEEEEEW~~~!WUcAUUUYW~WW~~!QEEERHAct",
"pcmJIPPIIIIIIIPIKKUJnxnnnmnnmKUKPIPPPIIIPHxnnnnAPITPUPPPUPPPPPZp",
"lxxxxxxzxlxxzxzxxxxxlxlzzzxxlxxxzxxzxxlxxxzzxlxlxxNlzxxxzxxzxzxl"
};
