/* XPM */
static char *m_goblin_run_anim_f0_scaled_4x_pngcrushed1672411195[] = {
/* columns rows colors chars-per-pixel */
"64 64 6 1 ",
"  c None",
". c #060608",
"X c #683E2C",
"o c #3A5124",
"O c #7E4C35",
"+ c #4B692F",
/* pixels */
"                                                                ",
"                                                                ",
"                                                                ",
"                                                                ",
"                    ....................                        ",
"                    ....................                        ",
"                    ....................                        ",
"                    ....................                        ",
"                ....XXXXOOOOOOOOOOOOXXXX....                    ",
"                ....XXXXOOOOOOOOOOOOXXXX....                    ",
"                ....XXXXOOOOOOOOOOOOXXXX....                    ",
"                ....XXXXOOOOOOOOOOOOXXXX....                    ",
"            ....XXXXOOOOOOOOOOOOOOOOOOOOXXXX....                ",
"            ....XXXXOOOOOOOOOOOOOOOOOOOOXXXX....                ",
"            ....XXXXOOOOOOOOOOOOOOOOOOOOXXXX....                ",
"            ....XXXXOOOOOOOOOOOOOOOOOOOOXXXX....                ",
"        ....++++OOOOOOOOOOOOOOOOOOOOOOOO++++++++....            ",
"        ....++++OOOOOOOOOOOOOOOOOOOOOOOO++++++++....            ",
"        ....++++OOOOOOOOOOOOOOOOOOOOOOOO++++++++....            ",
"        ....++++OOOOOOOOOOOOOOOOOOOOOOOO++++++++....            ",
"    ....ooooooooooooooooooooooooooooOOOO++++oooooooo....        ",
"    ....ooooooooooooooooooooooooooooOOOO++++oooooooo....        ",
"    ....ooooooooooooooooooooooooooooOOOO++++oooooooo....        ",
"    ....ooooooooooooooooooooooooooooOOOO++++oooooooo....        ",
"    ............ooooooooooooooooooooXXXX++++XXXX........        ",
"    ............ooooooooooooooooooooXXXX++++XXXX........        ",
"    ............ooooooooooooooooooooXXXX++++XXXX........        ",
"    ............ooooooooooooooooooooXXXX++++XXXX........        ",
"            ....ooooooooooooooooooooooooooooXXXX....            ",
"            ....ooooooooooooooooooooooooooooXXXX....            ",
"            ....ooooooooooooooooooooooooooooXXXX....            ",
"            ....ooooooooooooooooooooooooooooXXXX....            ",
"            ........++++++++....++++ooooXXXXXXXX....            ",
"            ........++++++++....++++ooooXXXXXXXX....            ",
"            ........++++++++....++++ooooXXXXXXXX....            ",
"            ........++++++++....++++ooooXXXXXXXX....            ",
"            ....++++++++++++++++++++ooooXXXXXXXX....            ",
"            ....++++++++++++++++++++ooooXXXXXXXX....            ",
"            ....++++++++++++++++++++ooooXXXXXXXX....            ",
"            ....++++++++++++++++++++ooooXXXXXXXX....            ",
"            ....++++++++++++++++++++ooooXXXX....                ",
"            ....++++++++++++++++++++ooooXXXX....                ",
"            ....++++++++++++++++++++ooooXXXX....                ",
"            ....++++++++++++++++++++ooooXXXX....                ",
"                ................oooooooo....                    ",
"                ................oooooooo....                    ",
"                ................oooooooo....                    ",
"                ................oooooooo....                    ",
"                                ....oooo....                    ",
"                                ....oooo....                    ",
"                                ....oooo....                    ",
"                                ....oooo....                    ",
"                                    ........                    ",
"                                    ........                    ",
"                                    ........                    ",
"                                    ........                    ",
"                                                                ",
"                                                                ",
"                                                                ",
"                                                                ",
"                                                                ",
"                                                                ",
"                                                                ",
"                                                                "
};
