/* XPM */
static char *m_goblin_run_anim_f1_scaled_4x_pngcrushed1672411195[] = {
/* columns rows colors chars-per-pixel */
"64 64 6 1 ",
"  c None",
". c #060608",
"X c #683E2C",
"o c #3A5124",
"O c #7E4C35",
"+ c #4B692F",
/* pixels */
"                    ....................                        ",
"                    ....................                        ",
"                    ....................                        ",
"                    ....................                        ",
"                ....XXXXOOOOOOOOOOOOXXXX....                    ",
"                ....XXXXOOOOOOOOOOOOXXXX....                    ",
"                ....XXXXOOOOOOOOOOOOXXXX....                    ",
"                ....XXXXOOOOOOOOOOOOXXXX....                    ",
"    ............XXXXOOOOOOOOOOOOOOOOOOOOXXXX............        ",
"    ............XXXXOOOOOOOOOOOOOOOOOOOOXXXX............        ",
"    ............XXXXOOOOOOOOOOOOOOOOOOOOXXXX............        ",
"    ............XXXXOOOOOOOOOOOOOOOOOOOOXXXX............        ",
"    ....oooo++++OOOOOOOOOOOOOOOOOOOOOOOO++++++++oooo....        ",
"    ....oooo++++OOOOOOOOOOOOOOOOOOOOOOOO++++++++oooo....        ",
"    ....oooo++++OOOOOOOOOOOOOOOOOOOOOOOO++++++++oooo....        ",
"    ....oooo++++OOOOOOOOOOOOOOOOOOOOOOOO++++++++oooo....        ",
"        ....ooooooooooooooooooooooooOOOO++++oooo....            ",
"        ....ooooooooooooooooooooooooOOOO++++oooo....            ",
"        ....ooooooooooooooooooooooooOOOO++++oooo....            ",
"        ....ooooooooooooooooooooooooOOOO++++oooo....            ",
"            ....ooooooooooooooooooooXXXX++++XXXX....            ",
"            ....ooooooooooooooooooooXXXX++++XXXX....            ",
"            ....ooooooooooooooooooooXXXX++++XXXX....            ",
"            ....ooooooooooooooooooooXXXX++++XXXX....            ",
"            ........++++++++....++++ooooooooXXXX....            ",
"            ........++++++++....++++ooooooooXXXX....            ",
"            ........++++++++....++++ooooooooXXXX....            ",
"            ........++++++++....++++ooooooooXXXX....            ",
"            ....++++++++++++++++++++ooooXXXXXXXX....            ",
"            ....++++++++++++++++++++ooooXXXXXXXX....            ",
"            ....++++++++++++++++++++ooooXXXXXXXX....            ",
"            ....++++++++++++++++++++ooooXXXXXXXX....            ",
"            ....++++++++++++++++++++ooooXXXX....                ",
"            ....++++++++++++++++++++ooooXXXX....                ",
"            ....++++++++++++++++++++ooooXXXX....                ",
"            ....++++++++++++++++++++ooooXXXX....                ",
"        ........++++++++++++++++oooooooo....                    ",
"        ........++++++++++++++++oooooooo....                    ",
"        ........++++++++++++++++oooooooo....                    ",
"        ........++++++++++++++++oooooooo....                    ",
"        ....oooo....................oooooooo....                ",
"        ....oooo....................oooooooo....                ",
"        ....oooo....................oooooooo....                ",
"        ....oooo....................oooooooo....                ",
"        ........                    ............                ",
"        ........                    ............                ",
"        ........                    ............                ",
"        ........                    ............                ",
"                                                                ",
"                                                                ",
"                                                                ",
"                                                                ",
"                                                                ",
"                                                                ",
"                                                                ",
"                                                                ",
"                                                                ",
"                                                                ",
"                                                                ",
"                                                                ",
"                                                                ",
"                                                                ",
"                                                                ",
"                                                                "
};
