/* XPM */
static char *m_goblin_run_anim_f2_scaled_4x_pngcrushed1672411196[] = {
/* columns rows colors chars-per-pixel */
"64 64 7 1 ",
"  c None",
". c #040406",
"X c #060608",
"o c #683E2C",
"O c #3A5124",
"+ c #7E4C35",
"@ c #4B692F",
/* pixels */
"                                                                ",
"                                                                ",
"                                                                ",
"                                                                ",
"                    XXXXXXXXXXXXXXXXXXXX                        ",
"                    XXXXXXXXXXXXXXXXXXXX                        ",
"                    XXXXXXXXXXXXXXXXXXXX                        ",
"                    XXXXXXXXXXXXXXXXXXXX                        ",
"                XXXXoooo++++++++++++ooooXXXX                    ",
"                XXXXoooo++++++++++++ooooXXXX                    ",
"                XXXXoooo++++++++++++ooooXXXX                    ",
"                XXXXoooo++++++++++++ooooXXXX                    ",
"    XXXXXXXXXXXXoooo++++++++++++++++++++ooooXXXXXXXXXXXX        ",
"    XXXXXXXXXXXXoooo++++++++++++++++++++ooooXXXXXXXXXXXX        ",
"    XXXXXXXXXXXXoooo++++++++++++++++++++ooooXXXXXXXXXXXX        ",
"    XXXXXXXXXXXXoooo++++++++++++++++++++ooooXXXXXXXXXXXX        ",
"    XXXXOOOO@@@@++++++++++++++++++++++++@@@@@@@@OOOOXXXX        ",
"    XXXXOOOO@@@@++++++++++++++++++++++++@@@@@@@@OOOOXXXX        ",
"    XXXXOOOO@@@@++++++++++++++++++++++++@@@@@@@@OOOOXXXX        ",
"    XXXXOOOO@@@@++++++++++++++++++++++++@@@@@@@@OOOOXXXX        ",
"        XXXXOOOOOOOOOOOOOOOOOOOOOOOO++++@@@@OOOOXXXX            ",
"        XXXXOOOOOOOOOOOOOOOOOOOOOOOO++++@@@@OOOOXXXX            ",
"        XXXXOOOOOOOOOOOOOOOOOOOOOOOO++++@@@@OOOOXXXX            ",
"        XXXXOOOOOOOOOOOOOOOOOOOOOOOO++++@@@@OOOOXXXX            ",
"            XXXXOOOOOOOOOOOOOOOOOOOOoooo@@@@ooooXXXX            ",
"            XXXXOOOOOOOOOOOOOOOOOOOOoooo@@@@ooooXXXX            ",
"            XXXXOOOOOOOOOOOOOOOOOOOOoooo@@@@ooooXXXX            ",
"            XXXXOOOOOOOOOOOOOOOOOOOOoooo@@@@ooooXXXX            ",
"            XXXXXXXX@@@@@@@@XXXX@@@@OOOOOOOOooooXXXX            ",
"            XXXXXXXX@@@@@@@@XXXX@@@@OOOOOOOOooooXXXX            ",
"            XXXXXXXX@@@@@@@@XXXX@@@@OOOOOOOOooooXXXX            ",
"            XXXXXXXX@@@@@@@@XXXX@@@@OOOOOOOOooooXXXX            ",
"            XXXX@@@@@@@@@@@@@@@@@@@@OOOOooooooooXXXX            ",
"            XXXX@@@@@@@@@@@@@@@@@@@@OOOOooooooooXXXX            ",
"            XXXX@@@@@@@@@@@@@@@@@@@@OOOOooooooooXXXX            ",
"            XXXX@@@@@@@@@@@@@@@@@@@@OOOOooooooooXXXX            ",
"            XXXX@@@@@@@@@@@@@@@@@@@@OOOOooooXXXX                ",
"            XXXX@@@@@@@@@@@@@@@@@@@@OOOOooooXXXX                ",
"            XXXX@@@@@@@@@@@@@@@@@@@@OOOOooooXXXX                ",
"            XXXX@@@@@@@@@@@@@@@@@@@@OOOOooooXXXX                ",
"            XXXX@@@@@@@@@@@@@@@@OOOOOOOOOOOOXXXX                ",
"            XXXX@@@@@@@@@@@@@@@@OOOOOOOOOOOOXXXX                ",
"            XXXX@@@@@@@@@@@@@@@@OOOOOOOOOOOOXXXX                ",
"            XXXX@@@@@@@@@@@@@@@@OOOOOOOOOOOOXXXX                ",
"            XXXXOOOOXXXXXXXXXXXXXXXXXXXXXXXXXXXX                ",
"            XXXXOOOOXXXXXXXXXXXXXXXXXXXXXXXXXXXX                ",
"            XXXXOOOOXXXXXXXXXXXXXXXXXXXXXXXXXXXX                ",
"            XXXXOOOOXXXXXXXXXXXXXXXXXXXXXXXXXXXX                ",
"            ........                                            ",
"            ........                                            ",
"            ........                                            ",
"            ........                                            ",
"                                                                ",
"                                                                ",
"                                                                ",
"                                                                ",
"                                                                ",
"                                                                ",
"                                                                ",
"                                                                ",
"                                                                ",
"                                                                ",
"                                                                ",
"                                                                "
};
