/* XPM */
static char *m_goblin_run_anim_f5_scaled_4x_pngcrushed1672411196[] = {
/* columns rows colors chars-per-pixel */
"64 64 8 1 ",
"  c None",
". c #040406",
"X c #060608",
"o c #263518",
"O c #683E2C",
"+ c #3A5124",
"@ c #7E4C35",
"# c #4B692F",
/* pixels */
"                                                                ",
"                                                                ",
"                                                                ",
"                                                                ",
"                    XXXXXXXXXXXXXXXXXXXX                        ",
"                    XXXXXXXXXXXXXXXXXXXX                        ",
"                    XXXXXXXXXXXXXXXXXXXX                        ",
"                    XXXXXXXXXXXXXXXXXXXX                        ",
"                XXXXOOOO@@@@@@@@@@@@OOOOXXXX                    ",
"                XXXXOOOO@@@@@@@@@@@@OOOOXXXX                    ",
"                XXXXOOOO@@@@@@@@@@@@OOOOXXXX                    ",
"                XXXXOOOO@@@@@@@@@@@@OOOOXXXX                    ",
"    XXXXXXXXXXXXOOOO@@@@@@@@@@@@@@@@@@@@OOOOXXXXXXXXXXXX        ",
"    XXXXXXXXXXXXOOOO@@@@@@@@@@@@@@@@@@@@OOOOXXXXXXXXXXXX        ",
"    XXXXXXXXXXXXOOOO@@@@@@@@@@@@@@@@@@@@OOOOXXXXXXXXXXXX        ",
"    XXXXXXXXXXXXOOOO@@@@@@@@@@@@@@@@@@@@OOOOXXXXXXXXXXXX        ",
"    XXXX++++####@@@@@@@@@@@@@@@@@@@@@@@@########++++XXXX        ",
"    XXXX++++####@@@@@@@@@@@@@@@@@@@@@@@@########++++XXXX        ",
"    XXXX++++####@@@@@@@@@@@@@@@@@@@@@@@@########++++XXXX        ",
"    XXXX++++####@@@@@@@@@@@@@@@@@@@@@@@@########++++XXXX        ",
"        XXXX++++++++++++++++++++++++@@@@####++++XXXX            ",
"        XXXX++++++++++++++++++++++++@@@@####++++XXXX            ",
"        XXXX++++++++++++++++++++++++@@@@####++++XXXX            ",
"        XXXX++++++++++++++++++++++++@@@@####++++XXXX            ",
"            XXXX++++++++++++++++++++OOOO####OOOOXXXX            ",
"            XXXX++++++++++++++++++++OOOO####OOOOXXXX            ",
"            XXXX++++++++++++++++++++OOOO####OOOOXXXX            ",
"            XXXX++++++++++++++++++++OOOO####OOOOXXXX            ",
"            XXXXXXXX########XXXX####++++++++OOOOXXXX            ",
"            XXXXXXXX########XXXX####++++++++OOOOXXXX            ",
"            XXXXXXXX########XXXX####++++++++OOOOXXXX            ",
"            XXXXXXXX########XXXX####++++++++OOOOXXXX            ",
"            XXXX####################++++OOOOOOOOXXXX            ",
"            XXXX####################++++OOOOOOOOXXXX            ",
"            XXXX####################++++OOOOOOOOXXXX            ",
"            XXXX####################++++OOOOOOOOXXXX            ",
"            XXXX####################++++OOOOXXXX                ",
"            XXXX####################++++OOOOXXXX                ",
"            XXXX####################++++OOOOXXXX                ",
"            XXXX####################++++OOOOXXXX                ",
"            XXXX####################++++XXXX                    ",
"            XXXX####################++++XXXX                    ",
"            XXXX####################++++XXXX                    ",
"            XXXX####################++++XXXX                    ",
"                XXXXXXXXXXXX####++++XXXX                        ",
"                XXXXXXXXXXXX####++++XXXX                        ",
"                XXXXXXXXXXXX####++++XXXX                        ",
"                XXXXXXXXXXXX####++++XXXX                        ",
"                        ....ooooXXXX                            ",
"                        ....ooooXXXX                            ",
"                        ....ooooXXXX                            ",
"                        ....ooooXXXX                            ",
"                        ........                                ",
"                        ........                                ",
"                        ........                                ",
"                        ........                                ",
"                                                                ",
"                                                                ",
"                                                                ",
"                                                                ",
"                                                                ",
"                                                                ",
"                                                                ",
"                                                                "
};
