/* XPM */
static char *goblin_run_anim_f0_scaled_4x_pngcrushed1672411872[] = {
/* columns rows colors chars-per-pixel */
"64 64 6 1 ",
"  c None",
". c #060608",
"X c #683E2C",
"o c #3A5124",
"O c #7E4C35",
"+ c #4B692F",
/* pixels */
"                                                                ",
"                                                                ",
"                                                                ",
"                                                                ",
"                        ....................                    ",
"                        ....................                    ",
"                        ....................                    ",
"                        ....................                    ",
"                    ....XXXXOOOOOOOOOOOOXXXX....                ",
"                    ....XXXXOOOOOOOOOOOOXXXX....                ",
"                    ....XXXXOOOOOOOOOOOOXXXX....                ",
"                    ....XXXXOOOOOOOOOOOOXXXX....                ",
"                ....XXXXOOOOOOOOOOOOOOOOOOOOXXXX....            ",
"                ....XXXXOOOOOOOOOOOOOOOOOOOOXXXX....            ",
"                ....XXXXOOOOOOOOOOOOOOOOOOOOXXXX....            ",
"                ....XXXXOOOOOOOOOOOOOOOOOOOOXXXX....            ",
"            ....++++++++OOOOOOOOOOOOOOOOOOOOOOOO++++....        ",
"            ....++++++++OOOOOOOOOOOOOOOOOOOOOOOO++++....        ",
"            ....++++++++OOOOOOOOOOOOOOOOOOOOOOOO++++....        ",
"            ....++++++++OOOOOOOOOOOOOOOOOOOOOOOO++++....        ",
"        ....oooooooo++++OOOOoooooooooooooooooooooooooooo....    ",
"        ....oooooooo++++OOOOoooooooooooooooooooooooooooo....    ",
"        ....oooooooo++++OOOOoooooooooooooooooooooooooooo....    ",
"        ....oooooooo++++OOOOoooooooooooooooooooooooooooo....    ",
"        ........XXXX++++XXXXoooooooooooooooooooo............    ",
"        ........XXXX++++XXXXoooooooooooooooooooo............    ",
"        ........XXXX++++XXXXoooooooooooooooooooo............    ",
"        ........XXXX++++XXXXoooooooooooooooooooo............    ",
"            ....XXXXoooooooooooooooooooooooooooo....            ",
"            ....XXXXoooooooooooooooooooooooooooo....            ",
"            ....XXXXoooooooooooooooooooooooooooo....            ",
"            ....XXXXoooooooooooooooooooooooooooo....            ",
"            ....XXXXXXXXoooo++++....++++++++........            ",
"            ....XXXXXXXXoooo++++....++++++++........            ",
"            ....XXXXXXXXoooo++++....++++++++........            ",
"            ....XXXXXXXXoooo++++....++++++++........            ",
"            ....XXXXXXXXoooo++++++++++++++++++++....            ",
"            ....XXXXXXXXoooo++++++++++++++++++++....            ",
"            ....XXXXXXXXoooo++++++++++++++++++++....            ",
"            ....XXXXXXXXoooo++++++++++++++++++++....            ",
"                ....XXXXoooo++++++++++++++++++++....            ",
"                ....XXXXoooo++++++++++++++++++++....            ",
"                ....XXXXoooo++++++++++++++++++++....            ",
"                ....XXXXoooo++++++++++++++++++++....            ",
"                    ....oooooooo................                ",
"                    ....oooooooo................                ",
"                    ....oooooooo................                ",
"                    ....oooooooo................                ",
"                    ....oooo....                                ",
"                    ....oooo....                                ",
"                    ....oooo....                                ",
"                    ....oooo....                                ",
"                    ........                                    ",
"                    ........                                    ",
"                    ........                                    ",
"                    ........                                    ",
"                                                                ",
"                                                                ",
"                                                                ",
"                                                                ",
"                                                                ",
"                                                                ",
"                                                                ",
"                                                                "
};
