/* XPM */
static char *goblin_run_anim_f2_scaled_4x_pngcrushed1672411195[] = {
/* columns rows colors chars-per-pixel */
"64 64 7 1 ",
"  c None",
". c #040406",
"X c #060608",
"o c #683E2C",
"O c #3A5124",
"+ c #7E4C35",
"@ c #4B692F",
/* pixels */
"                                                                ",
"                                                                ",
"                                                                ",
"                                                                ",
"                        XXXXXXXXXXXXXXXXXXXX                    ",
"                        XXXXXXXXXXXXXXXXXXXX                    ",
"                        XXXXXXXXXXXXXXXXXXXX                    ",
"                        XXXXXXXXXXXXXXXXXXXX                    ",
"                    XXXXoooo++++++++++++ooooXXXX                ",
"                    XXXXoooo++++++++++++ooooXXXX                ",
"                    XXXXoooo++++++++++++ooooXXXX                ",
"                    XXXXoooo++++++++++++ooooXXXX                ",
"        XXXXXXXXXXXXoooo++++++++++++++++++++ooooXXXXXXXXXXXX    ",
"        XXXXXXXXXXXXoooo++++++++++++++++++++ooooXXXXXXXXXXXX    ",
"        XXXXXXXXXXXXoooo++++++++++++++++++++ooooXXXXXXXXXXXX    ",
"        XXXXXXXXXXXXoooo++++++++++++++++++++ooooXXXXXXXXXXXX    ",
"        XXXXOOOO@@@@@@@@++++++++++++++++++++++++@@@@OOOOXXXX    ",
"        XXXXOOOO@@@@@@@@++++++++++++++++++++++++@@@@OOOOXXXX    ",
"        XXXXOOOO@@@@@@@@++++++++++++++++++++++++@@@@OOOOXXXX    ",
"        XXXXOOOO@@@@@@@@++++++++++++++++++++++++@@@@OOOOXXXX    ",
"            XXXXOOOO@@@@++++OOOOOOOOOOOOOOOOOOOOOOOOXXXX        ",
"            XXXXOOOO@@@@++++OOOOOOOOOOOOOOOOOOOOOOOOXXXX        ",
"            XXXXOOOO@@@@++++OOOOOOOOOOOOOOOOOOOOOOOOXXXX        ",
"            XXXXOOOO@@@@++++OOOOOOOOOOOOOOOOOOOOOOOOXXXX        ",
"            XXXXoooo@@@@ooooOOOOOOOOOOOOOOOOOOOOXXXX            ",
"            XXXXoooo@@@@ooooOOOOOOOOOOOOOOOOOOOOXXXX            ",
"            XXXXoooo@@@@ooooOOOOOOOOOOOOOOOOOOOOXXXX            ",
"            XXXXoooo@@@@ooooOOOOOOOOOOOOOOOOOOOOXXXX            ",
"            XXXXooooOOOOOOOO@@@@XXXX@@@@@@@@XXXXXXXX            ",
"            XXXXooooOOOOOOOO@@@@XXXX@@@@@@@@XXXXXXXX            ",
"            XXXXooooOOOOOOOO@@@@XXXX@@@@@@@@XXXXXXXX            ",
"            XXXXooooOOOOOOOO@@@@XXXX@@@@@@@@XXXXXXXX            ",
"            XXXXooooooooOOOO@@@@@@@@@@@@@@@@@@@@XXXX            ",
"            XXXXooooooooOOOO@@@@@@@@@@@@@@@@@@@@XXXX            ",
"            XXXXooooooooOOOO@@@@@@@@@@@@@@@@@@@@XXXX            ",
"            XXXXooooooooOOOO@@@@@@@@@@@@@@@@@@@@XXXX            ",
"                XXXXooooOOOO@@@@@@@@@@@@@@@@@@@@XXXX            ",
"                XXXXooooOOOO@@@@@@@@@@@@@@@@@@@@XXXX            ",
"                XXXXooooOOOO@@@@@@@@@@@@@@@@@@@@XXXX            ",
"                XXXXooooOOOO@@@@@@@@@@@@@@@@@@@@XXXX            ",
"                XXXXOOOOOOOOOOOO@@@@@@@@@@@@@@@@XXXX            ",
"                XXXXOOOOOOOOOOOO@@@@@@@@@@@@@@@@XXXX            ",
"                XXXXOOOOOOOOOOOO@@@@@@@@@@@@@@@@XXXX            ",
"                XXXXOOOOOOOOOOOO@@@@@@@@@@@@@@@@XXXX            ",
"                XXXXXXXXXXXXXXXXXXXXXXXXXXXXOOOOXXXX            ",
"                XXXXXXXXXXXXXXXXXXXXXXXXXXXXOOOOXXXX            ",
"                XXXXXXXXXXXXXXXXXXXXXXXXXXXXOOOOXXXX            ",
"                XXXXXXXXXXXXXXXXXXXXXXXXXXXXOOOOXXXX            ",
"                                            ........            ",
"                                            ........            ",
"                                            ........            ",
"                                            ........            ",
"                                                                ",
"                                                                ",
"                                                                ",
"                                                                ",
"                                                                ",
"                                                                ",
"                                                                ",
"                                                                ",
"                                                                ",
"                                                                ",
"                                                                ",
"                                                                "
};
