/* XPM */
static char *goblin_run_anim_f3_scaled_4x_pngcrushed1672411195[] = {
/* columns rows colors chars-per-pixel */
"64 64 8 1 ",
"  c None",
". c #040406",
"X c #060608",
"o c #263518",
"O c #683E2C",
"+ c #3A5124",
"@ c #7E4C35",
"# c #4B692F",
/* pixels */
"                                                                ",
"                                                                ",
"                                                                ",
"                                                                ",
"                        XXXXXXXXXXXXXXXXXXXX                    ",
"                        XXXXXXXXXXXXXXXXXXXX                    ",
"                        XXXXXXXXXXXXXXXXXXXX                    ",
"                        XXXXXXXXXXXXXXXXXXXX                    ",
"                    XXXXOOOO@@@@@@@@@@@@OOOOXXXX                ",
"                    XXXXOOOO@@@@@@@@@@@@OOOOXXXX                ",
"                    XXXXOOOO@@@@@@@@@@@@OOOOXXXX                ",
"                    XXXXOOOO@@@@@@@@@@@@OOOOXXXX                ",
"                XXXXOOOO@@@@@@@@@@@@@@@@@@@@OOOOXXXX            ",
"                XXXXOOOO@@@@@@@@@@@@@@@@@@@@OOOOXXXX            ",
"                XXXXOOOO@@@@@@@@@@@@@@@@@@@@OOOOXXXX            ",
"                XXXXOOOO@@@@@@@@@@@@@@@@@@@@OOOOXXXX            ",
"            XXXX########@@@@@@@@@@@@@@@@@@@@@@@@####XXXX        ",
"            XXXX########@@@@@@@@@@@@@@@@@@@@@@@@####XXXX        ",
"            XXXX########@@@@@@@@@@@@@@@@@@@@@@@@####XXXX        ",
"            XXXX########@@@@@@@@@@@@@@@@@@@@@@@@####XXXX        ",
"        XXXX++++++++####@@@@++++++++++++++++++++++++++++XXXX    ",
"        XXXX++++++++####@@@@++++++++++++++++++++++++++++XXXX    ",
"        XXXX++++++++####@@@@++++++++++++++++++++++++++++XXXX    ",
"        XXXX++++++++####@@@@++++++++++++++++++++++++++++XXXX    ",
"        XXXXXXXXOOOO####OOOO++++++++++++++++++++XXXXXXXXXXXX    ",
"        XXXXXXXXOOOO####OOOO++++++++++++++++++++XXXXXXXXXXXX    ",
"        XXXXXXXXOOOO####OOOO++++++++++++++++++++XXXXXXXXXXXX    ",
"        XXXXXXXXOOOO####OOOO++++++++++++++++++++XXXXXXXXXXXX    ",
"            XXXXOOOO++++++++++++++++++++++++++++XXXX            ",
"            XXXXOOOO++++++++++++++++++++++++++++XXXX            ",
"            XXXXOOOO++++++++++++++++++++++++++++XXXX            ",
"            XXXXOOOO++++++++++++++++++++++++++++XXXX            ",
"            XXXXOOOOOOOO++++####XXXX########XXXXXXXX            ",
"            XXXXOOOOOOOO++++####XXXX########XXXXXXXX            ",
"            XXXXOOOOOOOO++++####XXXX########XXXXXXXX            ",
"            XXXXOOOOOOOO++++####XXXX########XXXXXXXX            ",
"            XXXXOOOOOOOO++++####################XXXX            ",
"            XXXXOOOOOOOO++++####################XXXX            ",
"            XXXXOOOOOOOO++++####################XXXX            ",
"            XXXXOOOOOOOO++++####################XXXX            ",
"                XXXXOOOO++++++++################XXXX            ",
"                XXXXOOOO++++++++################XXXX            ",
"                XXXXOOOO++++++++################XXXX            ",
"                XXXXOOOO++++++++################XXXX            ",
"                    XXXXXXXXXXXXXXXXXXXXXXXX++++XXXX            ",
"                    XXXXXXXXXXXXXXXXXXXXXXXX++++XXXX            ",
"                    XXXXXXXXXXXXXXXXXXXXXXXX++++XXXX            ",
"                    XXXXXXXXXXXXXXXXXXXXXXXX++++XXXX            ",
"                                    ....oooo....                ",
"                                    ....oooo....                ",
"                                    ....oooo....                ",
"                                    ....oooo....                ",
"                                    ........                    ",
"                                    ........                    ",
"                                    ........                    ",
"                                    ........                    ",
"                                                                ",
"                                                                ",
"                                                                ",
"                                                                ",
"                                                                ",
"                                                                ",
"                                                                ",
"                                                                "
};
