/* XPM */
static char *floor_1_scaled_4x_pngcrushed1672411194[] = {
/* columns rows colors chars-per-pixel */
"64 64 4 1 ",
"  c #59413E",
". c #514047",
"X c #77514C",
"o c #8D5D57",
/* pixels */
"....XXXXXXXXXXXXXXXXXXXX............XXXXXXXXXXXXXXXXXXXX........",
"....XXXXXXXXXXXXXXXXXXXX............XXXXXXXXXXXXXXXXXXXX........",
"....XXXXXXXXXXXXXXXXXXXX............XXXXXXXXXXXXXXXXXXXX........",
"....XXXXXXXXXXXXXXXXXXXX............XXXXXXXXXXXXXXXXXXXX........",
"XXXXXXXXXXXXXXXXXXXXXXXXoooo....XXXXXXXXXXXXXXXXXXXXXXXXoooo....",
"XXXXXXXXXXXXXXXXXXXXXXXXoooo....XXXXXXXXXXXXXXXXXXXXXXXXoooo....",
"XXXXXXXXXXXXXXXXXXXXXXXXoooo....XXXXXXXXXXXXXXXXXXXXXXXXoooo....",
"XXXXXXXXXXXXXXXXXXXXXXXXoooo....XXXXXXXXXXXXXXXXXXXXXXXXoooo....",
"XXXXXXXXXXXXXXXXXXXXXXXXoooo....XXXXXXXXXXXXXXXXXXXXXXXXoooo....",
"XXXXXXXXXXXXXXXXXXXXXXXXoooo....XXXXXXXXXXXXXXXXXXXXXXXXoooo....",
"XXXXXXXXXXXXXXXXXXXXXXXXoooo....XXXXXXXXXXXXXXXXXXXXXXXXoooo....",
"XXXXXXXXXXXXXXXXXXXXXXXXoooo....XXXXXXXXXXXXXXXXXXXXXXXXoooo....",
"XXXXXXXXXXXXXXXXXXXXXXXXoooo....XXXXXXXXXXXXXXXXXXXXXXXXoooo....",
"XXXXXXXXXXXXXXXXXXXXXXXXoooo....XXXXXXXXXXXXXXXXXXXXXXXXoooo....",
"XXXXXXXXXXXXXXXXXXXXXXXXoooo....XXXXXXXXXXXXXXXXXXXXXXXXoooo....",
"XXXXXXXXXXXXXXXXXXXXXXXXoooo....XXXXXXXXXXXXXXXXXXXXXXXXoooo....",
"XXXXXXXXXXXXXXXXXXXXXXXXoooo....XXXXXXXXXXXXXXXXXXXXXXXXoooo....",
"XXXXXXXXXXXXXXXXXXXXXXXXoooo....XXXXXXXXXXXXXXXXXXXXXXXXoooo....",
"XXXXXXXXXXXXXXXXXXXXXXXXoooo....XXXXXXXXXXXXXXXXXXXXXXXXoooo....",
"XXXXXXXXXXXXXXXXXXXXXXXXoooo....XXXXXXXXXXXXXXXXXXXXXXXXoooo....",
"XXXXXXXXXXXXXXXXXXXXoooooooo....XXXXXXXXXXXXXXXXXXXXoooooooo....",
"XXXXXXXXXXXXXXXXXXXXoooooooo....XXXXXXXXXXXXXXXXXXXXoooooooo....",
"XXXXXXXXXXXXXXXXXXXXoooooooo....XXXXXXXXXXXXXXXXXXXXoooooooo....",
"XXXXXXXXXXXXXXXXXXXXoooooooo....XXXXXXXXXXXXXXXXXXXXoooooooo....",
"    oooooooooooooooooooo    ....    oooooooooooooooooooo    ....",
"    oooooooooooooooooooo    ....    oooooooooooooooooooo    ....",
"    oooooooooooooooooooo    ....    oooooooooooooooooooo    ....",
"    oooooooooooooooooooo    ....    oooooooooooooooooooo    ....",
"....                    ............                    ........",
"....                    ............                    ........",
"....                    ............                    ........",
"....                    ............                    ........",
"....XXXXXXXXXXXXXXXXXXXX............XXXXXXXXXXXXXXXXXXXX........",
"....XXXXXXXXXXXXXXXXXXXX............XXXXXXXXXXXXXXXXXXXX........",
"....XXXXXXXXXXXXXXXXXXXX............XXXXXXXXXXXXXXXXXXXX........",
"....XXXXXXXXXXXXXXXXXXXX............XXXXXXXXXXXXXXXXXXXX........",
"XXXXXXXXXXXXXXXXXXXXXXXXoooo....XXXXXXXXXXXXXXXXXXXXXXXXoooo....",
"XXXXXXXXXXXXXXXXXXXXXXXXoooo....XXXXXXXXXXXXXXXXXXXXXXXXoooo....",
"XXXXXXXXXXXXXXXXXXXXXXXXoooo....XXXXXXXXXXXXXXXXXXXXXXXXoooo....",
"XXXXXXXXXXXXXXXXXXXXXXXXoooo....XXXXXXXXXXXXXXXXXXXXXXXXoooo....",
"XXXXXXXXXXXXXXXXXXXXXXXXoooo....XXXXXXXXXXXXXXXXXXXXXXXXoooo....",
"XXXXXXXXXXXXXXXXXXXXXXXXoooo....XXXXXXXXXXXXXXXXXXXXXXXXoooo....",
"XXXXXXXXXXXXXXXXXXXXXXXXoooo....XXXXXXXXXXXXXXXXXXXXXXXXoooo....",
"XXXXXXXXXXXXXXXXXXXXXXXXoooo....XXXXXXXXXXXXXXXXXXXXXXXXoooo....",
"XXXXXXXXXXXXXXXXXXXXXXXXoooo....XXXXXXXXXXXXXXXXXXXXXXXXoooo....",
"XXXXXXXXXXXXXXXXXXXXXXXXoooo....XXXXXXXXXXXXXXXXXXXXXXXXoooo....",
"XXXXXXXXXXXXXXXXXXXXXXXXoooo....XXXXXXXXXXXXXXXXXXXXXXXXoooo....",
"XXXXXXXXXXXXXXXXXXXXXXXXoooo....XXXXXXXXXXXXXXXXXXXXXXXXoooo....",
"XXXXXXXXXXXXXXXXXXXXXXXXoooo....XXXXXXXXXXXXXXXXXXXXXXXXoooo....",
"XXXXXXXXXXXXXXXXXXXXXXXXoooo....XXXXXXXXXXXXXXXXXXXXXXXXoooo....",
"XXXXXXXXXXXXXXXXXXXXXXXXoooo....XXXXXXXXXXXXXXXXXXXXXXXXoooo....",
"XXXXXXXXXXXXXXXXXXXXXXXXoooo....XXXXXXXXXXXXXXXXXXXXXXXXoooo....",
"XXXXXXXXXXXXXXXXXXXXoooooooo....XXXXXXXXXXXXXXXXXXXXoooooooo....",
"XXXXXXXXXXXXXXXXXXXXoooooooo....XXXXXXXXXXXXXXXXXXXXoooooooo....",
"XXXXXXXXXXXXXXXXXXXXoooooooo....XXXXXXXXXXXXXXXXXXXXoooooooo....",
"XXXXXXXXXXXXXXXXXXXXoooooooo....XXXXXXXXXXXXXXXXXXXXoooooooo....",
"    oooooooooooooooooooo    ....    oooooooooooooooooooo    ....",
"    oooooooooooooooooooo    ....    oooooooooooooooooooo    ....",
"    oooooooooooooooooooo    ....    oooooooooooooooooooo    ....",
"    oooooooooooooooooooo    ....    oooooooooooooooooooo    ....",
"....                    ............                    ........",
"....                    ............                    ........",
"....                    ............                    ........",
"....                    ............                    ........"
};
