/* XPM */
static char *slime_run_anim_f01672510216[] = {
/* columns rows colors chars-per-pixel */
"64 64 28 1 ",
"  c None",
". c black",
"X c #0C1C0E",
"o c #0D1D0F",
"O c #0F2212",
"+ c #17331B",
"@ c #19381D",
"# c #1A3B1F",
"$ c #1B3B1F",
"% c #26542C",
"& c #29592F",
"* c #2E6636",
"= c #33703B",
"- c #34713C",
"; c #35733D",
": c #36753E",
"> c #35763E",
", c #37773F",
"< c #387B41",
"1 c #387C41",
"2 c #3A8043",
"3 c #3B8244",
"4 c #3C8445",
"5 c #3E8948",
"6 c #479451",
"7 c #50A05A",
"8 c #59AB63",
"9 c #62B76D",
/* pixels */
"                                                                ",
"                                                                ",
"                                                                ",
"                                                                ",
"                                                                ",
"                                                                ",
"                                                                ",
"                                                                ",
"                                                                ",
"                                                                ",
"                                                                ",
"                                                                ",
"                       ..................                       ",
"                     ......................                     ",
"                   ..........................                   ",
"                 ..............................                 ",
"               .......X%=15555555555551=%X.......               ",
"             .......X%==1555555555555551==%X.......             ",
"            ......X%===155555555555555551===%X......            ",
"           .....X%====15555555555555555551====%X.....           ",
"          ....X%=====1555555555555555555551=====%X....          ",
"         ...X%======155555555555555555555551======%X...         ",
"        ...@======>35555555555555555555555553>======@...        ",
"       ...@=====>355555555555555555555555555553>=====@...       ",
"      ...@====>3555555555555555555555555555555553>====@...      ",
"     ...@===>35555555555555555555555555555555555553>===@...     ",
"   ....@===155555555555555555555555555555555555555551===@....   ",
" .....@===15555555555555555555555555555555555555555551===@..... ",
".....X===1555555556886555555555555555555555555555555551===X.....",
".....%==155555556899998655555555555555555555555555555551==%.....",
"....X==15555555799999997555555555555555555555555555555551==X....",
"....%=1555555579999999755555555555555555555555555555555551=%....",
"....-,5555555799999997555555555555555555555555*OO*555555551-....",
"....,555555579999999755555555555555555555555*O....#555555551....",
"....5555555579999986555555555545555555553463.......*55555555....",
"....55555555579986555555555555465555555564,,.......O55555555....",
"....555555555555554<,,,,,$....$,,,<:>:<:,,,,........55555555....",
"....55555555555541<:,,,,#......$,,::<:<:,,,,........55555555....",
"....555555553441:<::,,,,........,,:<:<::,,,,&o.....$55555555....",
"....5555555561:,:::<,,,,........,,:<:::<,,,,,,&o..#,55555555....",
"....55553431,,,,<:,,,,,,o......o,,,,,,,,,,,,,,,,,,,,:<<:5555....",
"....55556<::,,,,<::<,,,,&......&,,,,,,,,,,,,,,,,,,,,,:::5555....",
"....1555,,,,,,,,::::,,,,,+....+,,,,,,,,,,,,,,,,,,,,,,,:<5551....",
"....=255,,,,,,,,:<<:,,,,,,&Xo&,,,,,,,,,,,,,,,,,,,,,,,,:<551=....",
"....%=>>,,,,,,,,,,,,,,,,,,,,,,,,,,,,,,,,,,,,,,,,,,,,<:::>>=%....",
"....X=-;,:,,,,,,,,,,,,,,,,,,,,,,,,,,,,,,,,,,,,,,,,,,::<:;==X....",
".....%-=-:,,,,,,,,,,,,,,,,,,,,,,,,,,,,,,,,,,,,,,,,,,:<;;==%.....",
".....X====;:,,,,,,,,,,,,,,,,,,,,,,,,,,,,,,,,,,,,,,,,;;====X.....",
" .....@=====;>>:,,,,,,,,,,,,,,,,,,,,,,,,,,,,,,,,,::;=====@..... ",
"   ....@======;:,,,,,,,,,,,,,,,,,,,,,,,,,,,,,,,::;======@....   ",
"     ...X%======;:,,,,,,,,,,,,,,,,,,,,,,,,,,,,::====-=%X...     ",
"      ....X%====-:,:,,,,,,,,,,,,,,,,,,,,,,,,,,;=====%X....      ",
"       .....X%-===;:,,,,,,,,,,,,,,,,,,,,,,,,::====%o.....       ",
"        ......X%=-=;,,,,,,,,,,,,,,,,,,,,,,,,;===%o......        ",
"         .......X%==::,,,,,,,,,,,,,,,,,,,,,:-=%X.......         ",
"           .......X%=:,,,,,,,,,,,,,,,,,,,:;=%X.......           ",
"             ......................................             ",
"               ..................................               ",
"                 ..............................                 ",
"                   ..........................                   ",
"                                                                ",
"                                                                ",
"                                                                ",
"                                                                "
};
