/* XPM */
static char *slime_run_anim_f51672510218[] = {
/* columns rows colors chars-per-pixel */
"64 64 30 1 ",
"  c None",
". c black",
"X c #0C1C0E",
"o c #0D1D0F",
"O c #0F2212",
"+ c #17331B",
"@ c #19381D",
"# c #1B3B1F",
"$ c #26542C",
"% c #29592F",
"& c #2E6636",
"* c #33703B",
"= c #34713C",
"- c #35733D",
"; c #36753E",
": c #35763E",
"> c #37773F",
", c #387B41",
"< c #387C41",
"1 c #3A8043",
"2 c #3B8244",
"3 c #3C8445",
"4 c #3E8948",
"5 c #41874A",
"6 c #479451",
"7 c #4C9756",
"8 c #50A05A",
"9 c #57A761",
"0 c #59AB63",
"q c #62B76D",
/* pixels */
"                                                                ",
"                                                                ",
"                                                                ",
"                                                                ",
"                                                                ",
"                                                                ",
"                                                                ",
"                                                                ",
"                                                                ",
"                                                                ",
"                                                                ",
"                                                                ",
"                                                                ",
"                                                                ",
"                                                                ",
"                                                                ",
"                       ..........................               ",
"                     ..............................             ",
"                   .................................            ",
"                 ....................................           ",
"               .......X$*<44444444444444444444<*$X....          ",
"             .......X$**<4444444444444444444444<**$X...         ",
"            ......X$***<444444444444444444444444<***@...        ",
"           .....X$****<44444444444444444444444444<***@...       ",
"          ....X$*****<4444444444444444444444444444<***@...      ",
"         ...X$******<444444444444444444444444444444<***@...     ",
"        ...@******:244444444444444444444444444444444<***@....   ",
"       ...@*****:244444444444444444444444444444444444<***@..... ",
"      ...@****:244444444444444444444444444444444444444<***X.....",
"     ...@***:244444444444444444444444444444444444444444<**$.....",
"   ....@***<44444444444444444444444444444444444444444444<**X....",
" .....@***<4444444444444444444444444444444444444444444444<*$....",
".....X***<444444446006444444444444444444444444444444444444<*....",
".....$**<444444460qqqq0644444444444444444444444444444444444<....",
"....X**<44444448qqqqqqq8444444444444444444554444444444444444....",
"....$*<44444448qqqqqqq84444444454444444444454444444444444444....",
"....*<44444448qqqqqqq7>>>>>>>>>>>>,;:;,;>>>>>#..O&4444444444....",
"....<44444448qqqqqqq7>>>>>>>>>>>>>;;,;,;>>>>#.....O&44444444....",
"....444444448qqqqq05>>>>>>>>>>>>>>;,;,;;>>>>........24444444....",
"....4444444448qq05;:>>>>>>>>>>>>>>;,;;;,>>>>........>2444444....",
"....444443>>>>>>;;>>>>>>>>%oo%>>>>>>>>>>>>>>o.......>>354444....",
"....44445<>>>>>>>>>>>>>>>+....+>>>>>>>>>>>>>%.......>>>34444....",
"....<4443;>>>>>>>>>>>>>>%......%>>>>>>>>>>>>>+....o%>>;5444<....",
"....*<44<>>>>>>>>>>>>>>>o......o>>>>>>>>>>>>>>%oo%>>>>,,44<*....",
"....$*:;>>>>>>>>>>>>>>>>o......o>>>>>>>>>>>>>>>>>>>>,;;;::*$....",
"....X**:>>>>>>>>>>>>>>>>%......%>>>>>>>>>>>>>>>>>>>>;;,;-**X....",
".....$**-;>>>>>>>>>>>>>>>+....+>>>>>>>>>>>>>>>>>>>>>;,:-**$.....",
".....X*****;>>>>>>>>>>>>>>%oo%>>>>>>>>>>>>>>>>>>>>>>;*****X.....",
" .....@*****-:;;>>>>>>>>>>>>>>>>>>>>>>>>>>>>>>>>>>>******@..... ",
"   ....@******-;>>>>>>>>>>>>>>>>>>>>>>>>>>>>>>>;>*******@....   ",
"     ...X$******-;>>>>>>>>>>>>>>>>>>>>>>>>>>>>;-******$X...     ",
"      ....X$*****;>>>>>>>>>>>>>>>>>>>>>>>>>>>>-*****$X....      ",
"       .....X$****-;>>>>>>>>>>>>>>>>>>>>>>>>>:****$X.....       ",
"        ......X$***->>>>>>>>>>>>>>>>>>>>>>>>:***$X......        ",
"         .......X$**;;>>>>>>>>>>>>>>>>>>>>>:**$X.......         ",
"           .......X$*;>>>>>>>>>>>>>>>>>>>;-*$X.......           ",
"             ......................................             ",
"               ..................................               ",
"                 ..............................                 ",
"                   ..........................                   ",
"                                                                ",
"                                                                ",
"                                                                ",
"                                                                "
};
