/* XPM */
static char *wall_2_scaled_4x_pngcrushed1672411196[] = {
/* columns rows colors chars-per-pixel */
"64 64 4 1 ",
"  c #353E50",
". c #434F65",
"X c #5A6988",
"o c #6F7F9F",
/* pixels */
"....................................                            ",
"....................................                            ",
"....................................                            ",
"....................................                            ",
"....................................oooooooooooooooooooooooooooo",
"....................................oooooooooooooooooooooooooooo",
"....................................oooooooooooooooooooooooooooo",
"....................................oooooooooooooooooooooooooooo",
"....................................ooooXXXXXXXXXXXX....XXXXoooo",
"....................................ooooXXXXXXXXXXXX....XXXXoooo",
"....................................ooooXXXXXXXXXXXX....XXXXoooo",
"....................................ooooXXXXXXXXXXXX....XXXXoooo",
"                ....                            ....            ",
"                ....                            ....            ",
"                ....                            ....            ",
"                ....                            ....            ",
"oooooooooooooooo....oooooooooooooooooooooooooooo....oooooooooooo",
"oooooooooooooooo....oooooooooooooooooooooooooooo....oooooooooooo",
"oooooooooooooooo....oooooooooooooooooooooooooooo....oooooooooooo",
"oooooooooooooooo....oooooooooooooooooooooooooooo....oooooooooooo",
"XXXXXXXXXXXXoooo....ooooXXXXXXXXXXXXXXXXXXXXoooo....ooooXXXXXXXX",
"XXXXXXXXXXXXoooo....ooooXXXXXXXXXXXXXXXXXXXXoooo....ooooXXXXXXXX",
"XXXXXXXXXXXXoooo....ooooXXXXXXXXXXXXXXXXXXXXoooo....ooooXXXXXXXX",
"XXXXXXXXXXXXoooo....ooooXXXXXXXXXXXXXXXXXXXXoooo....ooooXXXXXXXX",
"XXXXXXXXXXXXXXXX........XXXXXXXXXXXXXXXXXXXX........XXXXXXXXXXXX",
"XXXXXXXXXXXXXXXX........XXXXXXXXXXXXXXXXXXXX........XXXXXXXXXXXX",
"XXXXXXXXXXXXXXXX........XXXXXXXXXXXXXXXXXXXX........XXXXXXXXXXXX",
"XXXXXXXXXXXXXXXX........XXXXXXXXXXXXXXXXXXXX........XXXXXXXXXXXX",
"....                            ................................",
"....                            ................................",
"....                            ................................",
"....                            ................................",
"....oooooooooooooooooooooooooooo................................",
"....oooooooooooooooooooooooooooo................................",
"....oooooooooooooooooooooooooooo................................",
"....oooooooooooooooooooooooooooo................................",
"....ooooXXXXXXXXXXXXXXXXXXXXoooo................................",
"....ooooXXXXXXXXXXXXXXXXXXXXoooo................................",
"....ooooXXXXXXXXXXXXXXXXXXXXoooo................................",
"....ooooXXXXXXXXXXXXXXXXXXXXoooo................................",
"....XXXXXXXX....XXXXXXXXXXXXXXXX................................",
"....XXXXXXXX....XXXXXXXXXXXXXXXX................................",
"....XXXXXXXX....XXXXXXXXXXXXXXXX................................",
"....XXXXXXXX....XXXXXXXXXXXXXXXX................................",
"                ........                        ....            ",
"                ........                        ....            ",
"                ........                        ....            ",
"                ........                        ....            ",
"oooooooooooooooo....    oooooooooooooooooooooooo....oooooooooooo",
"oooooooooooooooo....    oooooooooooooooooooooooo....oooooooooooo",
"oooooooooooooooo....    oooooooooooooooooooooooo....oooooooooooo",
"oooooooooooooooo....    oooooooooooooooooooooooo....oooooooooooo",
"XXXXXXXXXXXXoooo....ooooXXXXXXXXXXXXXXXXXXXXoooo....ooooXXXXXXXX",
"XXXXXXXXXXXXoooo....ooooXXXXXXXXXXXXXXXXXXXXoooo....ooooXXXXXXXX",
"XXXXXXXXXXXXoooo....ooooXXXXXXXXXXXXXXXXXXXXoooo....ooooXXXXXXXX",
"XXXXXXXXXXXXoooo....ooooXXXXXXXXXXXXXXXXXXXXoooo....ooooXXXXXXXX",
"XXXXXXXXXXXXXXXX....XXXXXXXXXXXXXXXXXXXXXXXXXXXX....XXXXXXXXXXXX",
"XXXXXXXXXXXXXXXX....XXXXXXXXXXXXXXXXXXXXXXXXXXXX....XXXXXXXXXXXX",
"XXXXXXXXXXXXXXXX....XXXXXXXXXXXXXXXXXXXXXXXXXXXX....XXXXXXXXXXXX",
"XXXXXXXXXXXXXXXX....XXXXXXXXXXXXXXXXXXXXXXXXXXXX....XXXXXXXXXXXX",
"................................................................",
"................................................................",
"................................................................",
"................................................................"
};
